<svg width="300" height="156" viewBox="0 0 300 156" fill="none" xmlns="http://www.w3.org/2000/svg">
<path d="M210.072 1.04659C210.504 0.774068 211.276 0.433411 211.775 0.297148C212.275 0.138175 213.251 0.00191247 213.933 0.00191247C214.637 -0.020798 215.772 0.160886 216.545 0.433411C217.294 0.705937 218.361 1.20557 218.929 1.56893C219.497 1.90959 220.678 2.97698 221.541 3.8854C222.404 4.81653 223.607 6.38355 224.198 7.3601C224.766 8.35936 225.606 9.99451 226.06 10.9938C226.492 11.993 227.446 14.6047 228.127 16.7849C228.831 18.9651 229.853 22.1446 230.398 23.8252C230.943 25.5058 231.715 27.6633 232.101 28.5944C232.465 29.5255 233.123 30.8427 233.532 31.5013C233.918 32.1599 234.645 33.1819 235.144 33.7724C235.621 34.3628 236.598 35.2713 237.302 35.7936C238.006 36.3159 238.937 36.8383 239.369 36.9745C239.8 37.1108 240.777 37.2244 242.889 37.2244L242.207 37.9057C241.821 38.2917 241.117 38.7687 240.618 38.9504C240.004 39.2002 239.21 39.291 238.119 39.2229C237.188 39.1775 236.144 38.9503 235.621 38.7005C235.122 38.4507 234.1 37.6559 233.328 36.8837C232.578 36.1343 231.579 34.8625 231.125 34.0449C230.67 33.2273 229.989 31.7057 229.603 30.6383C229.194 29.5709 228.286 26.5732 227.559 23.9387C226.832 21.3043 225.924 18.352 225.538 17.3527C225.152 16.3534 224.425 14.8773 223.948 14.0597C223.448 13.2421 222.563 12.0839 221.95 11.4707C221.359 10.8575 220.36 10.0172 219.724 9.58573C219.111 9.17694 217.816 8.56376 216.885 8.24581C215.568 7.76889 214.75 7.65534 213.251 7.65534C211.957 7.63263 210.912 7.7916 210.095 8.06413C209.413 8.31394 208.823 8.63189 208.778 8.76815C208.755 8.92712 208.868 9.06339 209.05 9.06339C209.232 9.06339 210.027 9.38133 210.821 9.79012C211.594 10.1762 212.752 11.0165 213.365 11.6524C214.001 12.2883 214.841 13.4692 215.25 14.2868C215.636 15.1044 216.09 16.467 216.227 17.3527C216.431 18.5336 216.431 19.3058 216.227 20.4186C216.09 21.2362 215.818 22.0538 215.636 22.2355C215.318 22.5307 215.295 22.4853 215.295 21.7812C215.295 21.3497 215.091 20.3278 214.841 19.5102C214.591 18.6926 214.205 17.7842 213.592 16.9666L212.343 18.193C211.435 19.0787 210.753 19.5102 209.845 19.8054C209.164 20.0098 208.187 20.1915 207.687 20.1915C207.188 20.1915 206.166 20.078 205.416 19.9417C204.667 19.8054 203.009 19.2831 201.737 18.8062C200.443 18.3293 199.148 17.9205 198.83 17.9205C198.353 17.9205 198.194 18.1021 197.786 19.215C197.445 20.1461 197.331 21.0318 197.331 22.2809C197.354 23.8706 197.309 24.0296 196.991 23.7571C196.809 23.6208 196.423 22.7578 196.173 21.8948C195.81 20.6457 195.719 19.8736 195.787 18.2611C195.878 16.5578 196.014 15.9674 196.627 14.6729C197.036 13.8326 197.899 12.5835 198.535 11.8795C199.194 11.1755 200.193 10.3352 200.761 10.0172C201.329 9.69928 202.373 9.24507 203.077 9.01796C203.804 8.79086 204.69 8.60918 205.076 8.60918C205.712 8.60918 205.757 8.54105 205.871 7.51907C205.939 6.9286 206.302 5.81579 206.665 5.02092C207.052 4.24877 207.778 3.13596 208.301 2.56819C208.846 2.00043 209.641 1.31912 210.072 1.04659Z" fill="#2F2E41"/>
<path d="M210.753 70.1772C215.568 68.6783 221.132 66.9523 223.131 66.3165C225.129 65.7033 226.81 65.1809 226.878 65.1582C226.946 65.1582 227.218 65.3853 227.468 65.6579C227.741 65.9531 228.377 66.8388 228.899 67.6564C229.421 68.4739 229.944 69.4732 230.057 69.882C230.262 70.5633 230.125 70.8813 227.877 74.7647C226.56 77.0358 225.22 79.2614 224.925 79.6929C224.516 80.2834 224.357 80.783 224.357 81.6233C224.357 82.509 224.516 82.9632 225.016 83.6672C225.424 84.2577 226.015 84.7119 226.651 84.9845C227.309 85.257 227.968 85.3478 228.468 85.2797C228.899 85.2116 229.603 84.9163 230.035 84.6438C230.466 84.3486 230.988 83.7581 231.238 83.3266C231.465 82.8724 231.647 82.0775 231.647 81.5098C231.624 80.942 231.488 80.238 231.329 79.92C231.056 79.3977 231.079 79.2614 231.738 78.2849C232.124 77.6944 232.51 77.1948 232.601 77.1948C232.714 77.1948 232.828 77.4219 232.873 77.7171C232.919 77.9896 233.373 79.9654 233.873 82.0775C234.395 84.2123 235.122 87.6189 235.508 89.6855C235.894 91.7522 236.439 95.0225 236.757 96.9529C237.052 98.8832 237.62 102.926 237.983 105.923C238.369 108.921 238.937 113.736 239.232 116.597C239.55 119.482 240.073 124.773 240.368 128.407C240.686 132.041 241.095 137.355 241.299 140.216C241.481 143.101 241.64 145.848 241.64 147.257L237.62 147.756C235.394 148.029 233.532 148.188 233.464 148.12C233.396 148.051 229.739 136.128 225.333 121.616C220.928 107.127 217.271 95.2042 217.226 95.136C217.158 95.0679 217.021 95.2723 216.908 95.5902C216.794 95.9082 212.593 106.332 207.574 118.755C202.532 131.178 197.786 142.942 196.991 144.872C196.219 146.802 195.446 148.437 195.265 148.483C195.106 148.528 193.562 148.279 191.836 147.915C189.496 147.415 188.724 147.166 188.724 146.916C188.724 146.734 189.905 139.876 191.359 131.7C192.789 123.524 195.719 107.014 197.831 95.0225C199.966 83.0313 201.76 73.1523 201.851 73.0615C201.942 72.9479 205.939 71.6534 210.753 70.1772Z" fill="#2F2E41"/>
<path d="M181.457 148.914C181.934 148.506 182.683 148.051 183.092 147.892C183.501 147.756 184.25 147.62 184.75 147.62C185.25 147.597 187.339 148.051 189.406 148.596C191.472 149.141 193.516 149.664 193.948 149.755C194.447 149.846 194.72 150.027 194.674 150.232C194.652 150.413 194.356 151.572 193.38 155.137L192.471 155.001C191.972 154.91 188.906 154.138 185.658 153.252C182.411 152.366 179.731 151.617 179.708 151.549C179.663 151.503 179.844 151.049 180.094 150.55C180.344 150.05 180.957 149.3 181.457 148.914Z" fill="#2F2E41"/>
<path d="M228.399 151.594C228.876 151.231 229.626 150.799 230.057 150.64C230.602 150.459 232.442 150.345 240.504 150.322V155.092H233.464C227.991 155.092 226.424 155.024 226.424 154.819C226.424 154.66 226.673 154.024 226.969 153.388C227.264 152.775 227.922 151.958 228.399 151.594Z" fill="#2F2E41"/>
<path d="M209.845 19.8054C210.776 19.5102 211.389 19.1014 212.229 18.2384C212.842 17.5798 213.433 17.0575 213.524 17.0348C213.637 17.0121 213.91 17.3527 214.137 17.7388C214.387 18.1476 214.727 19.056 214.932 19.7373C215.136 20.4186 215.295 21.327 215.295 21.7131C215.295 22.1219 215.409 22.4626 215.522 22.4626C215.636 22.4626 215.749 22.5534 215.749 22.6897C215.749 22.8259 215.613 22.8486 215.477 22.7351C215.28 22.6291 215.242 22.667 215.363 22.8486C215.454 23.0076 215.272 23.8933 214.954 24.779C214.636 25.6874 214.182 26.7321 213.932 27.1182C213.705 27.5043 213.024 28.2537 212.411 28.8215C211.82 29.3665 210.708 30.116 209.958 30.4566C209.141 30.8427 208.005 31.138 207.119 31.2288C206.075 31.3424 205.212 31.2742 204.167 31.0017C203.349 30.7973 202.237 30.3431 201.669 30.0024C201.101 29.6845 200.238 28.9805 199.738 28.4581C199.239 27.9358 198.467 26.8003 198.035 25.9373C197.286 24.4838 197.24 24.2794 197.308 22.3944C197.331 21.0999 197.513 19.9871 197.808 19.1695C198.194 18.1022 198.353 17.9205 198.83 17.9205C199.148 17.9205 200.442 18.3293 201.714 18.8062C203.009 19.2831 204.667 19.8054 205.416 19.9417C206.165 20.078 207.187 20.1915 207.687 20.1915C208.187 20.1915 209.163 20.0098 209.845 19.8054Z" fill="#FFB8B8"/>
<path d="M224.924 79.6929C225.22 79.2614 226.764 76.6724 228.354 73.9472C229.921 71.2446 231.261 69.019 231.329 69.019C231.374 69.019 232.305 69.7003 233.395 70.5406C234.508 71.3582 235.507 72.1303 235.621 72.2212C235.757 72.312 235.235 73.2431 234.304 74.5604C233.463 75.764 232.782 76.8314 232.782 76.9677C232.782 77.0812 232.691 77.2175 232.6 77.2402C232.487 77.2856 232.101 77.7625 231.715 78.3303C231.079 79.2614 231.033 79.3977 231.329 79.92C231.488 80.238 231.624 80.942 231.647 81.5098C231.647 82.0775 231.465 82.8724 231.238 83.3266C230.988 83.7581 230.466 84.3486 230.034 84.6438C229.603 84.9163 228.899 85.2116 228.467 85.2797C227.968 85.3478 227.309 85.257 226.65 84.9845C226.014 84.7119 225.424 84.2577 225.015 83.6672C224.516 82.9632 224.357 82.509 224.357 81.6233C224.357 80.783 224.516 80.2834 224.924 79.6929Z" fill="#FFB8B8"/>
<path d="M177.823 90.1397C178.345 89.2086 179.14 87.846 179.572 87.1419C180.276 85.9383 180.389 85.8475 180.843 86.0746C181.096 86.2007 182.029 86.6965 184.472 87.9943L185.09 88.3229L182.138 92.6379L182.501 93.7053C182.706 94.3866 182.796 95.0906 182.706 95.5902C182.615 96.0217 182.365 96.703 182.138 97.0664C181.911 97.4298 181.388 97.9294 180.98 98.1338C180.548 98.3382 179.799 98.588 179.299 98.6561C178.595 98.7697 178.163 98.6789 177.369 98.2701C176.71 97.9294 176.165 97.4298 175.824 96.8393C175.393 96.0899 175.325 95.7038 175.416 94.6818C175.506 93.7734 175.711 93.2283 176.188 92.6379C176.551 92.2064 177.278 91.0709 177.823 90.1397Z" fill="#FFB8B8"/>
<path d="M191.563 149.187C189.564 148.665 189.405 148.574 189.36 148.029L189.314 147.438L191.767 147.915L191.821 147.926C194.175 148.392 194.196 148.396 194.061 148.96C193.97 149.278 193.856 149.573 193.811 149.641C193.743 149.709 192.744 149.505 191.563 149.187Z" fill="#FFB8B8"/>
<path d="M234.69 148.619C234.576 148.21 234.735 148.142 236.348 147.915C237.324 147.779 238.46 147.643 239.595 147.597V150.322H234.826V149.709C234.826 149.369 234.758 148.869 234.69 148.619Z" fill="#FFB8B8"/>
<path d="M204.008 34.8396C205.462 34.5217 207.506 34.181 208.55 34.0675C209.572 33.9539 211.23 33.8858 212.23 33.9312C213.229 33.9766 215.205 34.2946 216.613 34.6125C217.998 34.9305 219.792 35.1803 220.587 35.1803C221.359 35.1803 222.722 35.2938 223.585 35.4074C224.539 35.5664 225.311 35.7935 225.538 36.0433C225.742 36.2477 228.695 41.9026 238.278 60.7296L238.596 67.202C238.778 70.7676 238.914 73.9016 238.869 74.1969C238.801 74.6511 238.392 74.4013 230.966 68.6782V63.1142L228.195 59.5486C226.673 57.5728 225.175 55.6424 224.312 54.5977L224.47 56.8688C224.539 58.1179 224.766 59.753 224.97 60.5025C225.174 61.2519 225.515 62.2284 225.742 62.6599C225.969 63.0914 226.469 63.7955 226.855 64.2043C227.241 64.5903 227.491 64.9764 227.4 65.0218C227.287 65.0673 224.516 65.9303 221.2 66.9295C217.884 67.9515 212.23 69.7002 208.596 70.8357C204.985 71.9939 201.556 73.0386 199.966 73.4701L199.375 67.3383C198.83 61.479 198.762 61.0929 198.013 59.2988C197.604 58.2768 197.195 57.4365 197.127 57.4365C197.059 57.4365 196.446 60.2754 194.447 70.0408L190.655 79.125C188.565 84.1213 186.771 88.3909 186.658 88.618C186.476 88.9587 186.09 88.8224 183.115 87.2781C181.252 86.3015 179.731 85.5294 179.708 85.5067C179.685 85.484 180.821 82.0547 184.841 70.268L187.475 55.279C189.451 44.0828 190.2 40.1993 190.496 39.9041C190.7 39.677 192.063 38.9957 193.493 38.3598C194.924 37.7239 197.286 36.7927 198.717 36.3158C200.148 35.8162 202.532 35.1576 204.008 34.8396Z" fill="#F59E0B"/>
<path d="M88.9799 96.2714C89.207 95.9535 89.7521 95.4766 90.1608 95.204C90.615 94.8861 91.2737 94.6817 91.796 94.6817C92.2729 94.6817 93.0224 94.8634 93.4766 95.0905C93.9535 95.2949 94.5212 95.7945 94.7711 96.1579C95.0436 96.5212 95.2934 97.248 95.3388 97.7476C95.407 98.2699 95.3161 98.9967 95.1344 99.4282C94.9527 99.8597 94.4985 100.473 94.1352 100.814C93.7264 101.177 93.0451 101.495 92.4319 101.586C91.5916 101.722 91.2282 101.654 90.3879 101.222C89.6385 100.836 89.2297 100.427 88.8436 99.678C88.4576 98.9285 88.344 98.4289 88.4348 97.7476C88.503 97.248 88.7528 96.5894 88.9799 96.2714Z" fill="#F59E0B"/>
<path d="M75.399 96.1805C75.6488 95.8399 76.1712 95.3402 76.58 95.0904C77.125 94.7725 77.6474 94.6816 78.4649 94.7271C79.2144 94.7952 79.873 94.9996 80.3726 95.363C80.8041 95.6809 81.3037 96.2714 81.4627 96.6575C81.6217 97.0662 81.758 97.7703 81.758 98.2018C81.758 98.6333 81.6217 99.2692 81.44 99.6098C81.281 99.9732 80.8495 100.518 80.4862 100.836C80.1001 101.154 79.3961 101.495 78.8056 101.586C77.9653 101.722 77.6019 101.654 76.7617 101.222C76.0122 100.836 75.6034 100.427 75.2173 99.6779C74.8086 98.9058 74.7177 98.4289 74.8086 97.7476C74.8767 97.2479 75.1492 96.5439 75.399 96.1805Z" fill="#E6E6E6"/>
<path d="M102.424 96.612C102.674 96.067 103.197 95.4992 103.719 95.204C104.219 94.9087 104.968 94.6816 105.49 94.6816C105.99 94.6816 106.762 94.8633 107.194 95.1131C107.625 95.3402 108.216 95.9307 108.511 96.4076C108.92 97.1117 109.011 97.5204 108.92 98.4289C108.874 99.042 108.624 99.8142 108.397 100.109C108.17 100.405 107.693 100.859 107.353 101.131C106.876 101.472 106.376 101.608 105.513 101.608C104.537 101.608 104.173 101.495 103.446 100.927C102.97 100.564 102.424 99.905 102.266 99.4963C102.107 99.1102 101.97 98.497 101.97 98.1336C101.97 97.793 102.175 97.1117 102.424 96.612Z" fill="#E6E6E6"/>
<path d="M264.282 128.679C263.805 128.089 263.442 127.544 263.442 127.43C263.419 127.339 263.601 127.43 263.828 127.635C264.055 127.816 264.895 128.543 265.713 129.247C266.53 129.928 267.847 131.336 268.665 132.358C269.483 133.403 270.618 135.129 271.231 136.196C271.822 137.286 272.662 139.308 273.116 140.67C273.548 142.033 274.002 143.872 274.116 144.758C274.229 145.644 274.252 146.893 274.161 147.552C274.07 148.21 274.07 148.733 274.184 148.733C274.275 148.733 274.797 148.097 275.342 147.302C275.887 146.53 276.659 145.258 277.045 144.463C277.431 143.691 278.022 142.056 278.362 140.829C278.862 139.012 278.976 138.127 278.976 135.719C278.998 133.017 279.021 132.858 279.316 133.562C279.475 133.971 279.793 134.97 280.02 135.788C280.247 136.605 280.565 138.081 280.724 139.081C280.906 140.262 280.951 142.01 280.861 144.077C280.77 146.144 280.565 147.847 280.27 148.96C280.02 149.891 279.68 151.072 279.498 151.571C279.316 152.071 278.885 153.07 277.863 155.114L261.171 155.091L262.011 154.342C262.488 153.956 263.124 153.32 263.442 152.979C263.76 152.616 264.554 151.435 265.213 150.368C265.917 149.209 266.689 147.529 267.075 146.28C267.461 145.144 267.87 143.305 268.006 142.192C268.165 140.807 268.165 139.694 268.006 138.399C267.87 137.4 267.598 135.969 267.416 135.22C267.212 134.47 266.621 132.949 266.076 131.813C265.531 130.678 264.736 129.292 264.282 128.679Z" fill="#E6E6E6"/>
<path d="M23.3464 47.308C23.687 46.8084 24.3229 46.2179 24.7544 46.0135C25.4811 45.6729 30.4547 45.6274 91.8184 45.6274C146.505 45.6274 158.201 45.6729 158.814 45.9227C159.2 46.1044 159.813 46.5586 160.177 46.9446C160.518 47.3534 160.904 48.0575 161.04 48.5344C161.199 49.1021 161.244 54.7343 161.131 81.896L160.449 82.8499C160.086 83.3722 159.427 83.9627 159.041 84.1444C158.383 84.4169 149.389 84.4623 25.3222 84.485L24.5273 83.94C24.0958 83.6675 23.5053 83.077 22.6877 81.8506V48.2391L23.3464 47.308Z" fill="#3F3D56"/>
<path d="M95.8197 155.024L95.9063 155.024C148.64 155.001 191.994 155.001 192.244 155.024C192.494 155.069 216.794 155.092 246.249 155.092C299.619 155.092 299.778 155.092 299.778 155.546C299.778 156 299.619 156 149.889 156C0.158976 156 0 156 0 155.546C0 155.092 0.181571 155.092 95.8197 155.024Z" fill="#3F3D56"/>
<path d="M24.6861 47.0578C25.0495 46.8307 25.6399 46.6036 26.0033 46.5128C26.3667 46.422 56.0038 46.3538 91.8636 46.3311C134.423 46.3084 157.338 46.3992 157.883 46.5355C158.36 46.6718 158.996 46.9897 159.291 47.285C159.586 47.5575 159.95 48.0571 160.086 48.4205C160.268 48.8293 160.336 54.0754 160.336 65.2262C160.336 80.9419 160.313 81.4188 159.881 82.1455C159.632 82.5316 159.155 83.0539 158.814 83.281C158.224 83.6444 154.658 83.6671 91.9772 83.6671C25.8216 83.6671 25.7762 83.6671 24.9813 83.2129C24.5498 82.9404 24.0048 82.3953 23.8004 81.9638C23.4143 81.2371 23.3916 79.9426 23.3916 65.1127C23.3916 51.3274 23.437 48.9201 23.7323 48.2388C23.9139 47.8073 24.3454 47.2622 24.6861 47.0578Z" fill="#E4E5DF"/>
<path d="M37.8809 64.4315C35.8596 64.3633 35.5417 64.3179 35.4736 63.9545C35.4054 63.5912 35.7234 63.5685 40.5834 63.6139C45.012 63.682 45.7614 63.7274 45.7614 64.0227C45.7614 64.2952 45.3299 64.3633 41.1058 64.4769V72.8798L41.6735 73.2885C42.2413 73.6519 42.2867 73.6519 42.9907 73.1523C43.4904 72.7662 43.7856 72.6754 43.9446 72.857C44.0808 72.9706 44.1035 73.2431 44.0127 73.4475C43.8991 73.6292 43.4904 73.9472 43.1043 74.1515C42.423 74.4922 42.2867 74.4922 41.56 74.1743C41.1285 73.9699 40.6288 73.5384 40.4926 73.2204C40.2882 72.8343 40.1973 71.3809 40.1973 64.4769L37.8809 64.4315Z" fill="#F59E0B"/>
<path d="M91.8639 77.8761C39.2211 77.8761 32.4761 77.8307 32.4761 77.5355C32.4761 77.2402 39.2211 77.1948 91.8639 77.1948C144.507 77.1948 151.252 77.2402 151.252 77.5355C151.252 77.8307 144.507 77.8761 91.8639 77.8761Z" fill="#E6E6E6"/>
<path d="M46.9648 73.6066C46.9421 73.3795 47.0102 73.1069 47.1238 73.0161C47.2373 72.948 47.419 72.9025 47.5553 72.948C47.6915 72.9934 47.8278 73.2432 47.8505 73.5157C47.8959 73.8791 47.8051 74.0154 47.4644 74.0154C47.1919 74.0154 46.9875 73.8564 46.9648 73.6066Z" fill="#3F3D56"/>
<path d="M50.4622 73.652C50.3714 73.4249 50.4395 73.2205 50.6439 73.0842C50.8483 72.9707 51.0981 72.9934 51.2798 73.1751C51.4615 73.334 51.5296 73.5839 51.4615 73.7201C51.3933 73.8791 51.1662 74.0154 50.9846 74.0154C50.8029 74.0154 50.5758 73.8564 50.4622 73.652Z" fill="#3F3D56"/>
<path d="M53.9596 73.7201C53.8915 73.5839 53.9596 73.3113 54.1186 73.1524C54.2549 72.9934 54.482 72.9025 54.5955 72.948C54.7318 72.9934 54.868 73.2432 54.8907 73.5157C54.9362 73.8791 54.8453 74.0154 54.5047 74.0154C54.2549 74.0154 54.005 73.8791 53.9596 73.7201Z" fill="#3F3D56"/>
</svg>
