<svg width="44" height="44" viewBox="0 0 44 44" fill="none" xmlns="http://www.w3.org/2000/svg">
<rect width="44" height="44" rx="10" fill="#FFA726"/>
<path d="M25.1861 28.1862C25.3735 27.9987 25.4788 27.7444 25.4788 27.4792C25.4788 27.2141 25.3735 26.9597 25.1861 26.7722L20.2361 21.8222L25.1861 16.8722C25.3682 16.6836 25.469 16.431 25.4667 16.1688C25.4644 15.9066 25.3593 15.6558 25.1739 15.4704C24.9885 15.285 24.7376 15.1798 24.4755 15.1775C24.2133 15.1753 23.9607 15.2761 23.7721 15.4582L18.1151 21.1152C17.9276 21.3027 17.8223 21.5571 17.8223 21.8222C17.8223 22.0874 17.9276 22.3417 18.1151 22.5292L23.7721 28.1862C23.9596 28.3737 24.2139 28.479 24.4791 28.479C24.7442 28.479 24.9985 28.3737 25.1861 28.1862Z" fill="black"/>
</svg>
