<svg width="13" height="14" viewBox="0 0 13 14" fill="none" xmlns="http://www.w3.org/2000/svg">
<path d="M2.58099 3.55851C2.58099 4.47121 2.94356 5.34653 3.58894 5.9919C4.23431 6.63727 5.10962 6.99984 6.02232 6.99984C6.93502 6.99984 7.81033 6.63727 8.45571 5.9919C9.10108 5.34653 9.46365 4.47121 9.46365 3.55851C9.46365 2.64582 9.10108 1.7705 8.45571 1.12513C7.81033 0.479755 6.93502 0.117188 6.02232 0.117188C5.10962 0.117188 4.23431 0.479755 3.58894 1.12513C2.94356 1.7705 2.58099 2.64582 2.58099 3.55851ZM5.12166 8.94096L5.62173 9.77441L4.72645 13.1055L3.75857 9.15605C3.7048 8.93828 3.4951 8.79578 3.27733 8.85224C1.39535 9.32274 0 11.0273 0 13.0571C0 13.5142 0.371018 13.8825 0.825381 13.8825H11.2193C11.6763 13.8825 12.0446 13.5115 12.0446 13.0571C12.0446 11.0273 10.6493 9.32274 8.76732 8.85224C8.54955 8.79847 8.33984 8.94096 8.28607 9.15605L7.3182 13.1055L6.42291 9.77441L6.92298 8.94096C7.09505 8.65329 6.88803 8.29034 6.55465 8.29034H5.49268C5.1593 8.29034 4.95228 8.65598 5.12435 8.94096H5.12166Z" fill="#707070"/>
</svg>
