<svg width="20" height="20" viewBox="0 0 20 20" fill="none" xmlns="http://www.w3.org/2000/svg">
<path d="M8.9415 4.22783C9.29281 4.18715 9.64618 4.16684 9.99984 4.16699C13.8865 4.16699 16.9998 6.58616 18.3332 10.0003C18.0104 10.8308 17.5743 11.6126 17.0373 12.3237M5.43317 5.43283C3.73317 6.47033 2.4165 8.07783 1.6665 10.0003C2.99984 13.4145 6.11317 15.8337 9.99984 15.8337C11.6099 15.8422 13.1908 15.4037 14.5665 14.567M8.23317 8.23366C8.001 8.46583 7.81684 8.74145 7.69119 9.04479C7.56555 9.34813 7.50088 9.67324 7.50088 10.0016C7.50088 10.3299 7.56555 10.655 7.69119 10.9584C7.81684 11.2617 8.001 11.5373 8.23317 11.7695C8.46534 12.0017 8.74096 12.1858 9.0443 12.3115C9.34764 12.4371 9.67275 12.5018 10.0011 12.5018C10.3294 12.5018 10.6545 12.4371 10.9579 12.3115C11.2612 12.1858 11.5368 12.0017 11.769 11.7695" stroke="black" stroke-width="1.66667" stroke-linecap="round" stroke-linejoin="round"/>
<path d="M3.33301 3.3335L16.6663 16.6668" stroke="black" stroke-width="1.66667" stroke-linecap="round"/>
</svg>
