<svg width="140" height="105" viewBox="0 0 140 105" fill="none" xmlns="http://www.w3.org/2000/svg">
<rect x="44.0471" y="0.180176" width="10.0462" height="66.64" rx="5.02312" fill="#F59E0B"/>
<rect x="85.9065" y="0.180176" width="10.0462" height="66.64" rx="5.02312" fill="#46AF34"/>
<path d="M60.632 44.9549C58.8953 46.6917 58.8953 49.5076 60.632 51.2443C62.3688 52.9811 65.1847 52.9811 66.9215 51.2443L78.8715 39.2943C80.6083 37.5576 80.6083 34.7417 78.8715 33.0049C77.1347 31.2681 74.3188 31.2681 72.582 33.0049L60.632 44.9549Z" fill="#46AF34"/>
<rect width="8.89466" height="25.7945" rx="4.44733" transform="matrix(0.707107 0.707107 0.707107 -0.707107 57.6653 32.4199)" fill="#F59E0B"/>
<path d="M2.4684 96.8198V75.9287H5.29804V96.8198H2.4684ZM15.9543 96.8198V75.9287H18.7839V96.8198H15.9543ZM4.39496 87.3074V84.7186H16.6467V87.3074H4.39496ZM29.3215 97.1208C28.017 97.1208 26.833 96.7998 25.7694 96.1576C24.7057 95.4953 23.8629 94.6023 23.2408 93.4784C22.6387 92.3546 22.3377 91.0903 22.3377 89.6855C22.3377 88.2808 22.6387 87.0165 23.2408 85.8926C23.8629 84.7688 24.6957 83.8758 25.7393 83.2135C26.8029 82.5513 27.9969 82.2201 29.3215 82.2201C30.4051 82.2201 31.3684 82.4509 32.2113 82.9125C33.0742 83.354 33.7666 83.9761 34.2884 84.7788C34.8101 85.5615 35.1011 86.4746 35.1613 87.5182V91.8228C35.1011 92.8463 34.8101 93.7594 34.2884 94.5621C33.7867 95.3649 33.1043 95.997 32.2414 96.4586C31.3985 96.9001 30.4252 97.1208 29.3215 97.1208ZM29.773 94.5621C31.1176 94.5621 32.2013 94.1106 33.0241 93.2075C33.8469 92.2844 34.2583 91.1104 34.2583 89.6855C34.2583 88.7022 34.0676 87.8493 33.6863 87.1268C33.3251 86.3843 32.8033 85.8124 32.121 85.411C31.4387 84.9896 30.646 84.7788 29.7429 84.7788C28.8398 84.7788 28.0371 84.9896 27.3347 85.411C26.6524 85.8324 26.1105 86.4144 25.7092 87.1569C25.3279 87.8794 25.1372 88.7122 25.1372 89.6554C25.1372 90.6187 25.3279 91.4716 25.7092 92.2141C26.1105 92.9366 26.6624 93.5086 27.3648 93.93C28.0672 94.3514 28.8699 94.5621 29.773 94.5621ZM34.0776 96.8198V92.9667L34.5894 89.4748L34.0776 86.013V82.5211H36.817V96.8198H34.0776ZM40.7613 96.8198V82.5211H43.4706V96.8198H40.7613ZM50.4242 96.8198V88.1804C50.4242 87.1168 50.0931 86.284 49.4309 85.6819C48.7887 85.0598 47.9759 84.7487 46.9926 84.7487C46.3303 84.7487 45.7383 84.8892 45.2165 85.1702C44.6947 85.4511 44.2733 85.8425 43.9522 86.3442C43.6311 86.8459 43.4706 87.4479 43.4706 88.1503L42.3568 87.6085C42.3568 86.5248 42.5876 85.5816 43.0491 84.7788C43.5308 83.9761 44.183 83.354 45.0058 82.9125C45.8286 82.4509 46.7517 82.2201 47.7752 82.2201C48.7786 82.2201 49.6817 82.4409 50.4844 82.8824C51.3072 83.3239 51.9494 83.946 52.411 84.7487C52.8926 85.5515 53.1335 86.5047 53.1335 87.6085V96.8198H50.4242ZM60.0871 96.8198V88.1804C60.0871 87.1168 59.756 86.284 59.0937 85.6819C58.4516 85.0598 57.6488 84.7487 56.6855 84.7487C56.0233 84.7487 55.4212 84.8892 54.8794 85.1702C54.3576 85.4511 53.9362 85.8425 53.6151 86.3442C53.294 86.8459 53.1335 87.4479 53.1335 88.1503L51.5982 87.6085C51.6584 86.5047 51.9494 85.5615 52.4712 84.7788C53.013 83.9761 53.7054 83.354 54.5483 82.9125C55.3911 82.4509 56.3143 82.2201 57.3177 82.2201C58.3613 82.2201 59.2944 82.4409 60.1172 82.8824C60.94 83.3239 61.5923 83.946 62.0739 84.7487C62.5756 85.5515 62.8265 86.5147 62.8265 87.6386V96.8198H60.0871ZM72.5938 97.1208C71.2893 97.1208 70.1053 96.7998 69.0417 96.1576C67.9781 95.4953 67.1352 94.6023 66.5131 93.4784C65.911 92.3546 65.61 91.0903 65.61 89.6855C65.61 88.2808 65.911 87.0165 66.5131 85.8926C67.1352 84.7688 67.968 83.8758 69.0116 83.2135C70.0752 82.5513 71.2693 82.2201 72.5938 82.2201C73.6775 82.2201 74.6407 82.4509 75.4836 82.9125C76.3465 83.354 77.0389 83.9761 77.5607 84.7788C78.0825 85.5615 78.3734 86.4746 78.4337 87.5182V91.8228C78.3734 92.8463 78.0825 93.7594 77.5607 94.5621C77.059 95.3649 76.3766 95.997 75.5137 96.4586C74.6708 96.9001 73.6975 97.1208 72.5938 97.1208ZM73.0453 94.5621C74.3899 94.5621 75.4736 94.1106 76.2964 93.2075C77.1192 92.2844 77.5306 91.1104 77.5306 89.6855C77.5306 88.7022 77.3399 87.8493 76.9586 87.1268C76.5974 86.3843 76.0756 85.8124 75.3933 85.411C74.711 84.9896 73.9183 84.7788 73.0152 84.7788C72.1121 84.7788 71.3094 84.9896 70.607 85.411C69.9247 85.8324 69.3828 86.4144 68.9815 87.1569C68.6002 87.8794 68.4095 88.7122 68.4095 89.6554C68.4095 90.6187 68.6002 91.4716 68.9815 92.2141C69.3828 92.9366 69.9347 93.5086 70.6371 93.93C71.3395 94.3514 72.1422 94.5621 73.0453 94.5621ZM77.35 96.8198V92.9667L77.8617 89.4748L77.35 86.013V82.5211H80.0893V96.8198H77.35Z" fill="#F59E0B"/>
<path d="M86.1723 96.8198V76.5308H88.8816V96.8198H86.1723ZM82.6503 84.9896V82.5211H92.4035V84.9896H82.6503ZM101.239 97.1208C99.8142 97.1208 98.5299 96.7998 97.386 96.1576C96.2421 95.4953 95.339 94.6023 94.6768 93.4784C94.0145 92.3546 93.6834 91.0803 93.6834 89.6554C93.6834 88.2507 94.0045 86.9863 94.6467 85.8625C95.3089 84.7387 96.1919 83.8557 97.2957 83.2135C98.4195 82.5513 99.6738 82.2201 101.058 82.2201C102.383 82.2201 103.547 82.5211 104.55 83.1232C105.574 83.7252 106.367 84.5581 106.928 85.6217C107.51 86.6853 107.801 87.8894 107.801 89.234C107.801 89.4347 107.791 89.6554 107.771 89.8963C107.751 90.117 107.711 90.3779 107.651 90.6789H95.5798V88.4212H106.206L105.213 89.2942C105.213 88.3309 105.042 87.5182 104.701 86.8559C104.36 86.1736 103.878 85.6518 103.256 85.2906C102.634 84.9093 101.881 84.7186 100.998 84.7186C100.075 84.7186 99.2624 84.9193 98.56 85.3207C97.8576 85.722 97.3157 86.284 96.9344 87.0064C96.5531 87.7289 96.3625 88.5818 96.3625 89.5651C96.3625 90.5685 96.5632 91.4515 96.9645 92.2141C97.3659 92.9567 97.9379 93.5387 98.6804 93.9601C99.4229 94.3615 100.276 94.5621 101.239 94.5621C102.042 94.5621 102.774 94.4217 103.437 94.1407C104.119 93.8597 104.701 93.4383 105.183 92.8764L106.928 94.6524C106.246 95.4552 105.403 96.0673 104.4 96.4887C103.417 96.9101 102.363 97.1208 101.239 97.1208ZM117.288 97.1208C115.883 97.1208 114.609 96.7897 113.465 96.1275C112.341 95.4652 111.448 94.5722 110.786 93.4483C110.143 92.3045 109.822 91.0401 109.822 89.6554C109.822 88.2507 110.143 86.9863 110.786 85.8625C111.448 84.7387 112.341 83.8557 113.465 83.2135C114.609 82.5513 115.883 82.2201 117.288 82.2201C118.391 82.2201 119.415 82.4308 120.358 82.8523C121.301 83.2536 122.114 83.8457 122.796 84.6283L120.99 86.4345C120.549 85.9127 120.007 85.5214 119.365 85.2605C118.743 84.9795 118.05 84.839 117.288 84.839C116.385 84.839 115.582 85.0498 114.88 85.4712C114.177 85.8726 113.625 86.4345 113.224 87.1569C112.823 87.8794 112.622 88.7122 112.622 89.6554C112.622 90.5986 112.823 91.4315 113.224 92.1539C113.625 92.8764 114.177 93.4483 114.88 93.8698C115.582 94.2912 116.385 94.5019 117.288 94.5019C118.05 94.5019 118.743 94.3715 119.365 94.1106C120.007 93.8296 120.559 93.4283 121.02 92.9065L122.796 94.7127C122.134 95.4752 121.321 96.0673 120.358 96.4887C119.415 96.9101 118.391 97.1208 117.288 97.1208ZM135.598 96.8198V88.4814C135.598 87.3977 135.257 86.5047 134.574 85.8023C133.892 85.0999 133.009 84.7487 131.925 84.7487C131.203 84.7487 130.561 84.9093 129.999 85.2304C129.437 85.5515 128.995 85.993 128.674 86.5549C128.353 87.1168 128.193 87.759 128.193 88.4814L127.079 87.8493C127.079 86.7656 127.32 85.8023 127.801 84.9594C128.283 84.1166 128.955 83.4543 129.818 82.9727C130.681 82.471 131.654 82.2201 132.738 82.2201C133.822 82.2201 134.775 82.4609 135.598 82.9426C136.441 83.4242 137.103 84.0965 137.585 84.9594C138.066 85.8224 138.307 86.8158 138.307 87.9396V96.8198H135.598ZM125.483 96.8198V75.3267H128.193V96.8198H125.483Z" fill="#46AF34"/>
</svg>
