<svg width="31" height="31" viewBox="0 0 31 31" fill="none" xmlns="http://www.w3.org/2000/svg">
<path fill-rule="evenodd" clip-rule="evenodd" d="M3.78105 0C2.77825 0 1.81653 0.398331 1.10744 1.10736C0.39836 1.8164 0 2.77805 0 3.78078V6.94996C-3.26424e-09 7.169 0.043147 7.3859 0.126977 7.58827C0.210808 7.79064 0.33368 7.97452 0.488578 8.12941C0.643477 8.2843 0.827368 8.40716 1.02975 8.49098C1.23214 8.57481 1.44905 8.61795 1.66811 8.61795C1.88717 8.61795 2.10408 8.57481 2.30647 8.49098C2.50885 8.40716 2.69274 8.2843 2.84764 8.12941C3.00254 7.97452 3.12541 7.79064 3.20924 7.58827C3.29307 7.3859 3.33622 7.169 3.33622 6.94996V3.78078C3.33622 3.66281 3.38309 3.54967 3.46651 3.46626C3.54993 3.38284 3.66308 3.33598 3.78105 3.33598H6.95046C7.16952 3.33598 7.38644 3.29284 7.58882 3.20901C7.7912 3.12519 7.9751 3.00233 8.12999 2.84744C8.28489 2.69255 8.40777 2.50867 8.4916 2.3063C8.57543 2.10393 8.61857 1.88703 8.61857 1.66799C8.61857 1.44895 8.57543 1.23205 8.4916 1.02968C8.40777 0.827308 8.28489 0.64343 8.12999 0.488543C7.9751 0.333656 7.7912 0.210793 7.58882 0.126968C7.38644 0.0431438 7.16952 -3.264e-09 6.95046 0H3.78105ZM8.71866 5.93805C7.184 5.93805 5.93847 7.18348 5.93847 8.71803V13.3284C5.93847 14.8629 7.184 16.1083 8.71866 16.1083H13.3293C14.864 16.1083 16.1095 14.8629 16.1095 13.3284V8.71803C16.1095 7.18348 14.864 5.93805 13.3293 5.93805H8.71866ZM9.2747 12.7724V9.27403H12.7733V12.7724H9.2747ZM22.1814 1.66799C22.1814 1.22561 22.3572 0.801352 22.67 0.488543C22.9828 0.175734 23.4071 0 23.8495 0H27.0189C28.0217 0 28.9835 0.398331 29.6926 1.10736C30.4016 1.8164 30.8 2.77805 30.8 3.78078V6.94996C30.8 7.39234 30.6243 7.8166 30.3114 8.12941C29.9986 8.44222 29.5743 8.61795 29.1319 8.61795C28.6895 8.61795 28.2652 8.44222 27.9524 8.12941C27.6395 7.8166 27.4638 7.39234 27.4638 6.94996V3.78078C27.4638 3.66281 27.4169 3.54967 27.3335 3.46626C27.2501 3.38284 27.1369 3.33598 27.0189 3.33598H23.8495C23.4071 3.33598 22.9828 3.16025 22.67 2.84744C22.3572 2.53463 22.1814 2.11037 22.1814 1.66799ZM3.33622 23.85C3.33622 23.4077 3.16047 22.9834 2.84764 22.6706C2.53481 22.3578 2.11052 22.182 1.66811 22.182C1.2257 22.182 0.80141 22.3578 0.488578 22.6706C0.175747 22.9834 6.59243e-09 23.4077 0 23.85V27.0192C0 28.0219 0.39836 28.9836 1.10744 29.6926C1.81653 30.4017 2.77825 30.8 3.78105 30.8H6.95046C7.39287 30.8 7.81716 30.6243 8.12999 30.3115C8.44283 29.9986 8.61857 29.5744 8.61857 29.132C8.61857 28.6896 8.44283 28.2654 8.12999 27.9526C7.81716 27.6398 7.39287 27.464 6.95046 27.464H3.78105C3.66308 27.464 3.54993 27.4172 3.46651 27.3337C3.38309 27.2503 3.33622 27.1372 3.33622 27.0192V23.85ZM29.1319 22.182C29.5743 22.182 29.9986 22.3578 30.3114 22.6706C30.6243 22.9834 30.8 23.4077 30.8 23.85V27.0192C30.8 28.0219 30.4016 28.9836 29.6926 29.6926C28.9835 30.4017 28.0217 30.8 27.0189 30.8H23.8495C23.4071 30.8 22.9828 30.6243 22.67 30.3115C22.3572 29.9986 22.1814 29.5744 22.1814 29.132C22.1814 28.6896 22.3572 28.2654 22.67 27.9526C22.9828 27.6398 23.4071 27.464 23.8495 27.464H27.0189C27.1369 27.464 27.2501 27.4172 27.3335 27.3337C27.4169 27.2503 27.4638 27.1372 27.4638 27.0192V23.85C27.4638 23.4077 27.6395 22.9834 27.9524 22.6706C28.2652 22.3578 28.6895 22.182 29.1319 22.182ZM9.2747 20.2694C9.2747 19.827 9.09895 19.4028 8.78612 19.09C8.47329 18.7772 8.049 18.6014 7.60659 18.6014C7.16418 18.6014 6.73988 18.7772 6.42705 19.09C6.11422 19.4028 5.93847 19.827 5.93847 20.2694V23.1917C5.93847 24.1125 6.68579 24.8597 7.60659 24.8597H10.5291C10.9715 24.8597 11.3958 24.684 11.7086 24.3712C12.0215 24.0584 12.1972 23.6341 12.1972 23.1917C12.1972 22.7494 12.0215 22.3251 11.7086 22.0123C11.3958 21.6995 10.9715 21.5237 10.5291 21.5237H9.2747V20.2694ZM12.522 20.2694C12.522 19.827 12.6977 19.4028 13.0105 19.09C13.3234 18.7772 13.7477 18.6014 14.1901 18.6014H15.4C15.8424 18.6014 16.2667 18.7772 16.5795 19.09C16.8924 19.4028 17.0681 19.827 17.0681 20.2694V23.1917C17.0681 23.6341 16.8924 24.0584 16.5795 24.3712C16.2667 24.684 15.8424 24.8597 15.4 24.8597C14.9576 24.8597 14.5333 24.684 14.2205 24.3712C13.9076 24.0584 13.7319 23.6341 13.7319 23.1917V21.8729C13.3837 21.7735 13.0774 21.5635 12.8591 21.2746C12.6409 20.9857 12.5225 20.6337 12.522 20.2716V20.2694ZM21.939 7.60604C21.939 7.16366 21.7632 6.7394 21.4504 6.42659C21.1376 6.11378 20.7133 5.93805 20.2709 5.93805C19.8285 5.93805 19.4042 6.11378 19.0914 6.42659C18.7785 6.7394 18.6028 7.16366 18.6028 7.60604V10.5284C18.6028 11.4491 19.3501 12.1963 20.2709 12.1963H23.1934C23.6358 12.1963 24.0601 12.0206 24.3729 11.7078C24.6858 11.395 24.8615 10.9707 24.8615 10.5284C24.8615 10.086 24.6858 9.66172 24.3729 9.34891C24.0601 9.0361 23.6358 8.86037 23.1934 8.86037H21.939V7.60604ZM18.6028 15.3989C18.6028 14.9565 18.7785 14.5322 19.0914 14.2194C19.4042 13.9066 19.8285 13.7309 20.2709 13.7309H23.1934C23.6358 13.7309 24.0601 13.9066 24.3729 14.2194C24.6858 14.5322 24.8615 14.9565 24.8615 15.3989V16.82C24.8625 17.2416 24.7038 17.648 24.4173 17.9573C24.1307 18.2667 23.7377 18.456 23.3172 18.4873C22.8967 18.5186 22.4799 18.3895 22.1508 18.126C21.8216 17.8624 21.6045 17.484 21.5431 17.0669H20.2709C19.8285 17.0669 19.4042 16.8911 19.0914 16.5783C18.7785 16.2655 18.6028 15.8413 18.6028 15.3989ZM21.939 20.2694C21.939 19.827 21.7632 19.4028 21.4504 19.09C21.1376 18.7772 20.7133 18.6014 20.2709 18.6014C19.8285 18.6014 19.4042 18.7772 19.0914 19.09C18.7785 19.4028 18.6028 19.827 18.6028 20.2694V23.1917C18.6028 24.1125 19.3501 24.8597 20.2709 24.8597H23.1934C23.6358 24.8597 24.0601 24.684 24.3729 24.3712C24.6858 24.0584 24.8615 23.6341 24.8615 23.1917C24.8615 22.7494 24.6858 22.3251 24.3729 22.0123C24.0601 21.6995 23.6358 21.5237 23.1934 21.5237H21.939V20.2694Z" fill="black"/>
</svg>
