<svg width="44" height="44" viewBox="0 0 44 44" fill="none" xmlns="http://www.w3.org/2000/svg">
<rect width="44" height="44" rx="4.5" fill="#FFA726"/>
<path fill-rule="evenodd" clip-rule="evenodd" d="M10.3811 6.59961C9.37835 6.59961 8.41663 6.99794 7.70754 7.70697C6.99846 8.41601 6.6001 9.37766 6.6001 10.3804V13.5496C6.6001 13.7686 6.64324 13.9855 6.72708 14.1879C6.81091 14.3903 6.93378 14.5741 7.08868 14.729C7.24357 14.8839 7.42747 15.0068 7.62985 15.0906C7.83223 15.1744 8.04915 15.2176 8.26821 15.2176C8.48727 15.2176 8.70418 15.1744 8.90657 15.0906C9.10895 15.0068 9.29284 14.8839 9.44774 14.729C9.60264 14.5741 9.72551 14.3903 9.80934 14.1879C9.89317 13.9855 9.93632 13.7686 9.93632 13.5496V10.3804C9.93632 10.2624 9.98319 10.1493 10.0666 10.0659C10.15 9.98245 10.2632 9.93559 10.3811 9.93559H13.5506C13.7696 9.93559 13.9865 9.89245 14.1889 9.80862C14.3913 9.7248 14.5752 9.60193 14.7301 9.44705C14.885 9.29216 15.0079 9.10828 15.0917 8.90591C15.1755 8.70354 15.2187 8.48664 15.2187 8.2676C15.2187 8.04856 15.1755 7.83166 15.0917 7.62929C15.0079 7.42692 14.885 7.24304 14.7301 7.08815C14.5752 6.93327 14.3913 6.8104 14.1889 6.72658C13.9865 6.64275 13.7696 6.59961 13.5506 6.59961H10.3811ZM15.3188 12.5377C13.7841 12.5377 12.5386 13.7831 12.5386 15.3176V19.928C12.5386 21.4625 13.7841 22.7079 15.3188 22.7079H19.9294C21.4641 22.7079 22.7096 21.4625 22.7096 19.928V15.3176C22.7096 13.7831 21.4641 12.5377 19.9294 12.5377H15.3188ZM15.8748 19.372V15.8736H19.3734V19.372H15.8748ZM28.7815 8.2676C28.7815 7.82522 28.9573 7.40096 29.2701 7.08815C29.5829 6.77534 30.0072 6.59961 30.4496 6.59961H33.619C34.6218 6.59961 35.5836 6.99794 36.2927 7.70697C37.0017 8.41601 37.4001 9.37766 37.4001 10.3804V13.5496C37.4001 13.9919 37.2243 14.4162 36.9115 14.729C36.5987 15.0418 36.1744 15.2176 35.732 15.2176C35.2896 15.2176 34.8653 15.0418 34.5525 14.729C34.2396 14.4162 34.0639 13.9919 34.0639 13.5496V10.3804C34.0639 10.2624 34.017 10.1493 33.9336 10.0659C33.8502 9.98245 33.737 9.93559 33.619 9.93559H30.4496C30.0072 9.93559 29.5829 9.75986 29.2701 9.44705C28.9573 9.13424 28.7815 8.70998 28.7815 8.2676ZM9.93632 30.4496C9.93632 30.0073 9.76057 29.583 9.44774 29.2702C9.13491 28.9574 8.71062 28.7817 8.26821 28.7817C7.8258 28.7817 7.40151 28.9574 7.08868 29.2702C6.77584 29.583 6.6001 30.0073 6.6001 30.4496V33.6188C6.6001 34.6216 6.99846 35.5832 7.70754 36.2922C8.41663 37.0013 9.37835 37.3996 10.3811 37.3996H13.5506C13.993 37.3996 14.4173 37.2239 14.7301 36.9111C15.0429 36.5983 15.2187 36.174 15.2187 35.7316C15.2187 35.2892 15.0429 34.865 14.7301 34.5522C14.4173 34.2394 13.993 34.0636 13.5506 34.0636H10.3811C10.2632 34.0636 10.15 34.0168 10.0666 33.9334C9.98319 33.8499 9.93632 33.7368 9.93632 33.6188V30.4496ZM35.732 28.7817C36.1744 28.7817 36.5987 28.9574 36.9115 29.2702C37.2243 29.583 37.4001 30.0073 37.4001 30.4496V33.6188C37.4001 34.6216 37.0017 35.5832 36.2927 36.2922C35.5836 37.0013 34.6218 37.3996 33.619 37.3996H30.4496C30.0072 37.3996 29.5829 37.2239 29.2701 36.9111C28.9573 36.5983 28.7815 36.174 28.7815 35.7316C28.7815 35.2892 28.9573 34.865 29.2701 34.5522C29.5829 34.2394 30.0072 34.0636 30.4496 34.0636H33.619C33.737 34.0636 33.8502 34.0168 33.9336 33.9334C34.017 33.8499 34.0639 33.7368 34.0639 33.6188V30.4496C34.0639 30.0073 34.2396 29.583 34.5525 29.2702C34.8653 28.9574 35.2896 28.7817 35.732 28.7817ZM15.8748 26.869C15.8748 26.4266 15.699 26.0024 15.3862 25.6896C15.0734 25.3768 14.6491 25.201 14.2067 25.201C13.7643 25.201 13.34 25.3768 13.0272 25.6896C12.7143 26.0024 12.5386 26.4266 12.5386 26.869V29.7913C12.5386 30.7121 13.2859 31.4593 14.2067 31.4593H17.1292C17.5716 31.4593 17.9959 31.2836 18.3087 30.9708C18.6216 30.658 18.7973 30.2337 18.7973 29.7913C18.7973 29.349 18.6216 28.9247 18.3087 28.6119C17.9959 28.2991 17.5716 28.1234 17.1292 28.1234H15.8748V26.869ZM19.122 26.869C19.122 26.4266 19.2978 26.0024 19.6106 25.6896C19.9235 25.3768 20.3477 25.201 20.7902 25.201H22.0001C22.4425 25.201 22.8668 25.3768 23.1796 25.6896C23.4925 26.0024 23.6682 26.4266 23.6682 26.869V29.7913C23.6682 30.2337 23.4925 30.658 23.1796 30.9708C22.8668 31.2836 22.4425 31.4593 22.0001 31.4593C21.5577 31.4593 21.1334 31.2836 20.8206 30.9708C20.5077 30.658 20.332 30.2337 20.332 29.7913V28.4725C19.9838 28.3731 19.6775 28.1631 19.4592 27.8742C19.241 27.5853 19.1226 27.2333 19.122 26.8713V26.869ZM28.5391 14.2056C28.5391 13.7633 28.3633 13.339 28.0505 13.0262C27.7377 12.7134 27.3134 12.5377 26.871 12.5377C26.4286 12.5377 26.0043 12.7134 25.6914 13.0262C25.3786 13.339 25.2029 13.7633 25.2029 14.2056V17.128C25.2029 18.0487 25.9502 18.796 26.871 18.796H29.7935C30.2359 18.796 30.6602 18.6202 30.973 18.3074C31.2859 17.9946 31.4616 17.5703 31.4616 17.128C31.4616 16.6856 31.2859 16.2613 30.973 15.9485C30.6602 15.6357 30.2359 15.46 29.7935 15.46H28.5391V14.2056ZM25.2029 21.9985C25.2029 21.5561 25.3786 21.1319 25.6914 20.819C26.0043 20.5062 26.4286 20.3305 26.871 20.3305H29.7935C30.2359 20.3305 30.6602 20.5062 30.973 20.819C31.2859 21.1319 31.4616 21.5561 31.4616 21.9985V23.4196C31.4626 23.8413 31.3039 24.2476 31.0174 24.557C30.7308 24.8663 30.3378 25.0557 29.9173 25.0869C29.4968 25.1182 29.08 24.9891 28.7509 24.7256C28.4217 24.462 28.2046 24.0836 28.1432 23.6665H26.871C26.4286 23.6665 26.0043 23.4908 25.6914 23.1779C25.3786 22.8651 25.2029 22.4409 25.2029 21.9985ZM28.5391 26.869C28.5391 26.4266 28.3633 26.0024 28.0505 25.6896C27.7377 25.3768 27.3134 25.201 26.871 25.201C26.4286 25.201 26.0043 25.3768 25.6914 25.6896C25.3786 26.0024 25.2029 26.4266 25.2029 26.869V29.7913C25.2029 30.7121 25.9502 31.4593 26.871 31.4593H29.7935C30.2359 31.4593 30.6602 31.2836 30.973 30.9708C31.2859 30.658 31.4616 30.2337 31.4616 29.7913C31.4616 29.349 31.2859 28.9247 30.973 28.6119C30.6602 28.2991 30.2359 28.1234 29.7935 28.1234H28.5391V26.869Z" fill="black"/>
</svg>
