<svg width="44" height="44" viewBox="0 0 44 44" fill="none" xmlns="http://www.w3.org/2000/svg">
<rect width="44" height="44" rx="4.5" fill="#FFA726"/>
<path d="M21.5 15.6668V20.0418M21.5 24.4168V24.4314M30.25 9.8335C31.4103 9.8335 32.5231 10.2944 33.3436 11.1149C34.1641 11.9354 34.625 13.0482 34.625 14.2085V25.8752C34.625 27.0355 34.1641 28.1483 33.3436 28.9688C32.5231 29.7892 31.4103 30.2502 30.25 30.2502H22.9583L15.6667 34.6252V30.2502H12.75C11.5897 30.2502 10.4769 29.7892 9.65641 28.9688C8.83594 28.1483 8.375 27.0355 8.375 25.8752V14.2085C8.375 13.0482 8.83594 11.9354 9.65641 11.1149C10.4769 10.2944 11.5897 9.8335 12.75 9.8335H30.25Z" stroke="black" stroke-width="2.91667" stroke-linecap="round" stroke-linejoin="round"/>
</svg>
