<svg width="35" height="35" viewBox="0 0 35 35" fill="none" xmlns="http://www.w3.org/2000/svg">
<path d="M17.5 11.6668V16.0418M17.5 20.4168V20.4314M26.25 5.8335C27.4103 5.8335 28.5231 6.29443 29.3436 7.1149C30.1641 7.93538 30.625 9.04817 30.625 10.2085V21.8752C30.625 23.0355 30.1641 24.1483 29.3436 24.9688C28.5231 25.7892 27.4103 26.2502 26.25 26.2502H18.9583L11.6667 30.6252V26.2502H8.75C7.58968 26.2502 6.47688 25.7892 5.65641 24.9688C4.83594 24.1483 4.375 23.0355 4.375 21.8752V10.2085C4.375 9.04817 4.83594 7.93538 5.65641 7.1149C6.47688 6.29443 7.58968 5.8335 8.75 5.8335H26.25Z" stroke="black" stroke-width="2.91667" stroke-linecap="round" stroke-linejoin="round"/>
</svg>
