<svg width="12" height="14" viewBox="0 0 12 14" fill="none" xmlns="http://www.w3.org/2000/svg">
<path d="M7.09774 8.36201C8.14353 8.36201 9.1465 8.77746 9.88599 9.51695C10.6255 10.2564 11.0409 11.2594 11.0409 12.3052C11.0409 12.7235 10.8747 13.1247 10.5789 13.4205C10.2832 13.7163 9.88197 13.8825 9.46365 13.8825H1.57727C1.15896 13.8825 0.757769 13.7163 0.461973 13.4205C0.166177 13.1247 0 12.7235 0 12.3052C0 11.2594 0.415442 10.2564 1.15493 9.51695C1.89442 8.77746 2.89739 8.36201 3.94319 8.36201H5.52046H7.09774Z" fill="#707070"/>
<path d="M3.08708 5.9919C2.4417 5.34653 2.07913 4.47121 2.07913 3.55851C2.07913 2.64582 2.4417 1.7705 3.08708 1.12513C3.73245 0.479755 4.60776 0.117188 5.52046 0.117188C6.43316 0.117188 7.30847 0.479755 7.95385 1.12513C8.59922 1.7705 8.96179 2.64582 8.96179 3.55851C8.96179 4.47121 8.59922 5.34653 7.95385 5.9919C7.30847 6.63727 6.43316 6.99984 5.52046 6.99984C4.60776 6.99984 3.73245 6.63727 3.08708 5.9919Z" fill="#707070"/>
</svg>
